<?xml version="1.0" standalone="no"?>
<!DOCTYPE svg PUBLIC "-//W3C//DTD SVG 20010904//EN"
 "http://www.w3.org/TR/2001/REC-SVG-20010904/DTD/svg10.dtd">
<svg version="1.0" xmlns="http://www.w3.org/2000/svg"
 width="50.000000pt" height="50.000000pt" viewBox="0 0 1024.000000 1024.000000"
 preserveAspectRatio="xMidYMid meet">

<g transform="translate(0.000000,1024.000000) scale(0.100000,-0.100000)"
fill="#000000" stroke="none">
<path d="M4815 8363 c-294 -19 -662 -100 -975 -215 -295 -108 -563 -257 -848
-469 -162 -121 -461 -414 -589 -579 -513 -656 -772 -1418 -750 -2200 19 -655
212 -1268 566 -1795 545 -814 1365 -1329 2351 -1476 175 -26 574 -37 757 -20
1209 111 2234 819 2757 1903 168 349 260 666 313 1073 22 174 25 603 4 770
-126 1044 -754 2013 -1647 2545 -447 267 -910 413 -1449 459 -111 10 -371 12
-490 4z m490 -423 c498 -48 958 -211 1357 -479 192 -129 284 -205 453 -375
315 -317 548 -682 704 -1106 173 -472 217 -929 140 -1450 -123 -822 -605
-1575 -1303 -2034 -180 -118 -351 -205 -567 -286 -360 -136 -670 -194 -1049
-194 -216 0 -308 8 -515 45 -459 83 -909 279 -1289 560 -119 89 -349 309 -455
435 -372 446 -610 987 -686 1559 -102 769 135 1599 634 2224 465 581 1100 952
1836 1071 231 38 532 50 740 30z"/>
<path d="M3831 7339 c-170 -22 -359 -111 -483 -228 -133 -125 -210 -250 -256
-420 l-27 -96 -3 -1615 c-2 -888 0 -1630 3 -1647 4 -23 11 -33 24 -33 10 0 89
75 184 175 l167 174 1 1263 c0 695 4 1360 8 1478 7 201 10 219 35 280 53 130
151 223 287 272 l64 23 930 2 c582 2 936 -1 945 -7 12 -8 16 -52 20 -257 5
-230 7 -251 27 -288 11 -22 34 -52 50 -67 54 -52 85 -58 293 -58 176 0 195 2
248 23 78 32 241 131 275 168 54 59 62 49 -348 459 -206 206 -389 383 -407
393 -31 16 -97 17 -1003 16 -533 -1 -999 -5 -1034 -10z m2409 -709 c0 -5 -102
-5 -132 -1 -5 1 -8 36 -8 79 l1 77 69 -75 c39 -41 70 -77 70 -80z"/>
<path d="M4139 6695 c-61 -19 -143 -94 -176 -159 -36 -70 -43 -174 -17 -247
25 -69 91 -141 162 -176 47 -23 70 -28 132 -28 65 0 85 5 143 33 52 26 72 42
84 67 15 31 15 36 0 58 -8 13 -31 31 -50 41 -34 15 -37 15 -70 -4 -105 -62
-194 -36 -233 66 -14 38 -15 50 -4 89 15 55 50 92 99 105 42 11 81 3 140 -31
35 -19 43 -21 71 -9 135 56 25 198 -160 207 -47 2 -92 -3 -121 -12z"/>
<path d="M4687 6672 c-18 -19 -22 -59 -9 -78 4 -6 21 -17 37 -25 25 -12 47
-49 142 -241 l113 -228 79 0 80 0 111 225 c99 201 114 227 144 242 48 23 63
59 38 92 -19 25 -23 26 -148 29 -122 3 -130 2 -146 -19 -25 -30 -22 -56 7 -83
30 -28 30 -26 -42 -175 l-46 -96 -42 91 c-57 122 -71 167 -56 172 42 14 52 61
21 92 -18 18 -33 20 -143 20 -107 0 -126 -2 -140 -18z"/>
<path d="M6970 6495 c-250 -253 -509 -438 -1170 -835 -393 -236 -483 -299
-540 -374 -69 -93 -128 -239 -185 -458 -25 -98 -30 -108 -51 -108 -19 0 -24 7
-29 38 -3 20 -8 46 -10 57 -6 29 14 149 35 211 10 29 15 56 11 59 -38 23 -390
-352 -531 -566 -111 -168 -198 -363 -215 -481 l-7 -46 -50 -7 c-111 -15 -216
-91 -478 -341 -128 -123 -221 -207 -300 -273 -65 -54 -89 -106 -90 -187 0 -49
5 -68 29 -106 l29 -46 -59 -58 c-53 -52 -59 -63 -59 -99 1 -43 13 -65 47 -83
47 -26 66 -18 177 71 l35 29 43 -36 c68 -58 133 -69 208 -35 50 22 66 37 483
442 l298 290 56 -12 c89 -18 229 -14 318 9 151 39 270 109 486 286 206 169
633 593 616 611 -3 2 -53 -4 -112 -13 -93 -15 -122 -16 -209 -6 -56 6 -126 19
-156 28 l-55 17 120 22 c420 78 585 160 708 351 56 87 99 172 93 183 -3 5 -25
5 -48 0 -63 -12 -229 -11 -290 2 -54 12 -93 27 -85 35 2 2 77 22 166 44 400
99 478 173 676 644 76 180 164 444 221 654 41 154 40 174 -7 180 -19 2 -45
-18 -119 -93z m-726 -992 c-45 -70 -163 -221 -242 -310 -163 -185 -590 -601
-1107 -1078 -157 -145 -260 -242 -437 -407 l-146 -138 -29 28 c-16 15 -50 50
-76 78 l-47 51 142 126 c79 69 222 196 318 283 252 226 820 720 1070 930 211
178 561 463 569 464 2 0 -5 -12 -15 -27z m-2150 -1991 l89 -92 -29 -31 c-16
-17 -64 -63 -107 -102 l-78 -70 -95 94 -94 94 102 103 c57 56 108 101 113 100
6 -2 50 -45 99 -96z m-341 -360 c37 -39 67 -74 67 -79 0 -5 -16 -24 -35 -43
l-35 -34 -81 79 c-44 44 -90 93 -101 108 l-20 29 32 33 33 34 36 -28 c20 -16
66 -60 104 -99z"/>
<path d="M3990 5913 c-68 -35 -72 -133 -7 -176 24 -16 77 -17 619 -17 569 0
594 1 622 19 62 41 72 102 27 153 l-29 33 -599 3 c-554 2 -601 1 -633 -15z"/>
<path d="M3971 5424 c-27 -22 -31 -33 -31 -73 0 -52 21 -80 73 -100 38 -15
848 -15 899 -1 83 24 115 115 59 171 l-29 29 -470 0 -470 0 -31 -26z"/>
<path d="M6918 5218 c-29 -23 -278 -328 -278 -341 -3 -1165 -7 -1444 -24
-1502 -51 -176 -202 -310 -381 -335 -41 -6 -418 -10 -923 -10 -916 0 -883 2
-950 -50 -15 -12 -84 -74 -154 -138 -129 -118 -146 -144 -114 -171 10 -9 297
-11 1112 -9 l1099 3 80 23 c154 43 267 107 373 211 106 104 183 239 225 395
21 80 21 96 24 990 4 843 3 910 -13 927 -20 22 -53 25 -76 7z"/>
<path d="M4016 4980 c-75 -23 -102 -108 -53 -165 32 -37 65 -41 350 -35 l249
5 24 30 c34 41 38 68 20 107 -29 62 -35 63 -311 65 -137 1 -263 -3 -279 -7z"/>
<path d="M3969 4482 c-56 -50 -37 -137 36 -168 36 -15 221 -20 241 -6 11 7
104 182 104 195 0 4 -79 7 -175 7 l-175 0 -31 -28z"/>
<path d="M5723 3530 c-75 -45 -71 -135 7 -175 41 -21 385 -22 435 -1 57 24 82
97 49 145 -31 44 -69 51 -271 51 -169 0 -191 -2 -220 -20z"/>
</g>
</svg>
